<?xml version="1.0" encoding="UTF-8" standalone="no"?>
<!-- Created with Inkscape (http://www.inkscape.org/) -->

<svg
   width="8.5in"
   height="11in"
   viewBox="0 0 215.9 279.4"
   version="1.1"
   id="svg1"
   inkscape:version="1.4.2 (ebf0e94, 2025-05-08)"
   sodipodi:docname="GaggiaLid.svg"
   inkscape:export-filename="GaggiaLid.pdf"
   inkscape:export-xdpi="96"
   inkscape:export-ydpi="96"
   xmlns:inkscape="http://www.inkscape.org/namespaces/inkscape"
   xmlns:sodipodi="http://sodipodi.sourceforge.net/DTD/sodipodi-0.dtd"
   xmlns="http://www.w3.org/2000/svg"
   xmlns:svg="http://www.w3.org/2000/svg">
  <sodipodi:namedview
     id="namedview1"
     pagecolor="#ffffff"
     bordercolor="#000000"
     borderopacity="0.25"
     inkscape:showpageshadow="2"
     inkscape:pageopacity="0.0"
     inkscape:pagecheckerboard="0"
     inkscape:deskcolor="#d1d1d1"
     inkscape:document-units="mm"
     showgrid="true"
     inkscape:zoom="0.69621145"
     inkscape:cx="23.699696"
     inkscape:cy="465.37586"
     inkscape:window-width="1920"
     inkscape:window-height="1048"
     inkscape:window-x="0"
     inkscape:window-y="0"
     inkscape:window-maximized="1"
     inkscape:current-layer="layer1"
     inkscape:export-bgcolor="#ffffffff">
    <inkscape:grid
       id="grid2"
       units="mm"
       originx="0"
       originy="0"
       spacingx="0.99999998"
       spacingy="1"
       empcolor="#0099e5"
       empopacity="0.30196078"
       color="#0099e5"
       opacity="0.14901961"
       empspacing="5"
       enabled="true"
       visible="true" />
  </sodipodi:namedview>
  <defs
     id="defs1">
    <inkscape:path-effect
       effect="fillet_chamfer"
       id="path-effect11"
       is_visible="true"
       lpeversion="1"
       nodesatellites_param="F,0,0,1,0,1.3229167,0,1 @ F,0,0,1,0,1.3229167,0,1 @ F,0,0,1,0,1.3229167,0,1 @ F,0,0,1,0,1.3229167,0,1"
       radius="5"
       unit="mm"
       method="auto"
       mode="F"
       chamfer_steps="1"
       flexible="false"
       use_knot_distance="true"
       apply_no_radius="true"
       apply_with_radius="true"
       only_selected="false"
       hide_knots="false" />
    <inkscape:path-effect
       effect="fillet_chamfer"
       id="path-effect10"
       is_visible="true"
       lpeversion="1"
       nodesatellites_param="F,0,0,1,0,1.3229167,0,1 @ F,0,0,1,0,1.3229167,0,1 @ F,0,0,1,0,1.3229167,0,1 @ F,0,0,1,0,1.3229167,0,1 @ F,0,0,1,0,1.3229167,0,1 @ F,0,0,1,0,1.3229167,0,1"
       radius="5"
       unit="mm"
       method="auto"
       mode="F"
       chamfer_steps="1"
       flexible="false"
       use_knot_distance="true"
       apply_no_radius="true"
       apply_with_radius="true"
       only_selected="false"
       hide_knots="false" />
    <inkscape:path-effect
       effect="fillet_chamfer"
       id="path-effect11-7"
       is_visible="true"
       lpeversion="1"
       nodesatellites_param="F,0,0,1,0,1.3229167,0,1 @ F,0,0,1,0,1.3229167,0,1 @ F,0,0,1,0,1.3229167,0,1 @ F,0,0,1,0,1.3229167,0,1"
       radius="5"
       unit="mm"
       method="auto"
       mode="F"
       chamfer_steps="1"
       flexible="false"
       use_knot_distance="true"
       apply_no_radius="true"
       apply_with_radius="true"
       only_selected="false"
       hide_knots="false" />
    <inkscape:path-effect
       effect="fillet_chamfer"
       id="path-effect11-1"
       is_visible="true"
       lpeversion="1"
       nodesatellites_param="F,0,0,1,0,1.3229167,0,1 @ F,0,0,1,0,1.3229167,0,1 @ F,0,0,1,0,1.3229167,0,1 @ F,0,0,1,0,1.3229167,0,1"
       radius="5"
       unit="mm"
       method="auto"
       mode="F"
       chamfer_steps="1"
       flexible="false"
       use_knot_distance="true"
       apply_no_radius="true"
       apply_with_radius="true"
       only_selected="false"
       hide_knots="false" />
    <inkscape:path-effect
       effect="fillet_chamfer"
       id="path-effect11-7-5"
       is_visible="true"
       lpeversion="1"
       nodesatellites_param="F,0,0,1,0,1.3229167,0,1 @ F,0,0,1,0,1.3229167,0,1 @ F,0,0,1,0,1.3229167,0,1 @ F,0,0,1,0,1.3229167,0,1"
       radius="5"
       unit="mm"
       method="auto"
       mode="F"
       chamfer_steps="1"
       flexible="false"
       use_knot_distance="true"
       apply_no_radius="true"
       apply_with_radius="true"
       only_selected="false"
       hide_knots="false" />
    <inkscape:path-effect
       effect="fillet_chamfer"
       id="path-effect11-1-5"
       is_visible="true"
       lpeversion="1"
       nodesatellites_param="F,0,0,1,0,1.3229167,0,1 @ F,0,0,1,0,1.3229167,0,1 @ F,0,0,1,0,1.3229167,0,1 @ F,0,0,1,0,1.3229167,0,1"
       radius="5"
       unit="mm"
       method="auto"
       mode="F"
       chamfer_steps="1"
       flexible="false"
       use_knot_distance="true"
       apply_no_radius="true"
       apply_with_radius="true"
       only_selected="false"
       hide_knots="false" />
    <inkscape:path-effect
       effect="fillet_chamfer"
       id="path-effect11-7-3"
       is_visible="true"
       lpeversion="1"
       nodesatellites_param="F,0,0,1,0,1.3229167,0,1 @ F,0,0,1,0,1.3229167,0,1 @ F,0,0,1,0,1.3229167,0,1 @ F,0,0,1,0,1.3229167,0,1"
       radius="5"
       unit="mm"
       method="auto"
       mode="F"
       chamfer_steps="1"
       flexible="false"
       use_knot_distance="true"
       apply_no_radius="true"
       apply_with_radius="true"
       only_selected="false"
       hide_knots="false" />
    <inkscape:path-effect
       effect="fillet_chamfer"
       id="path-effect11-1-7"
       is_visible="true"
       lpeversion="1"
       nodesatellites_param="F,0,0,1,0,1.3229167,0,1 @ F,0,0,1,0,1.3229167,0,1 @ F,0,0,1,0,1.3229167,0,1 @ F,0,0,1,0,1.3229167,0,1"
       radius="5"
       unit="mm"
       method="auto"
       mode="F"
       chamfer_steps="1"
       flexible="false"
       use_knot_distance="true"
       apply_no_radius="true"
       apply_with_radius="true"
       only_selected="false"
       hide_knots="false" />
  </defs>
  <g
     inkscape:label="Layer 1"
     inkscape:groupmode="layer"
     id="layer1">
    <path
       id="path10"
       style="vector-effect:non-scaling-stroke;fill:none;stroke:#ff0000;stroke-width:0.264583;stroke-dasharray:none;stroke-opacity:1;-inkscape-stroke:hairline"
       d="M 198.67708,15 H 11.322917 c -0.730627,0 -1.3289984,0.592213 -1.3309691,1.32277 -0.033751,12.511964 0.00269,109.84258 0.00753,122.35446 2.829e-4,0.73055 0.1563601,1.89419 0.3486001,2.59907 L 39.651918,248.7237 A 1.7320292,1.7320292 37.372441 0 0 41.322917,250 H 168.67708 a 1.7320292,1.7320292 142.62756 0 0 1.671,-1.2763 l 29.30384,-107.4474 c 0.19224,-0.70488 0.34806,-1.86859 0.34805,-2.59922 -1.4e-4,-12.51254 1e-5,-109.842783 3e-5,-122.354373 C 200,15.592196 199.40771,15 198.67708,15 Z"
       sodipodi:nodetypes="ccccccc"
       inkscape:path-effect="#path-effect10"
       inkscape:original-d="M 200,15 H 10 c -0.050033,-0.04994 0,125 0,125 l 30,110 h 130 l 30,-110 c -2e-4,1.6e-4 0,-125 0,-125 z" />
    <path
       style="fill:none;stroke:#ff0000;stroke-width:0.26458333;stroke-dasharray:none;stroke-opacity:1;vector-effect:non-scaling-stroke;-inkscape-stroke:hairline"
       id="rect10-0"
       width="4.9905353"
       height="119.94054"
       x="147.46213"
       y="120.02973"
       transform="skewX(0.00904583)"
       inkscape:path-effect="#path-effect11"
       sodipodi:type="rect"
       d="m 148.78504,120.02973 h 2.34471 a 1.3229167,1.3229167 45 0 1 1.32291,1.32292 v 117.2947 a 1.3229167,1.3229167 135 0 1 -1.32291,1.32292 l -2.34471,0 a 1.3229167,1.3229167 45 0 1 -1.32291,-1.32292 v -117.2947 a 1.3229167,1.3229167 135 0 1 1.32291,-1.32292 z" />
    <path
       style="fill:none;stroke:#ff0000;stroke-width:0.26458333;stroke-dasharray:none;stroke-opacity:1;vector-effect:non-scaling-stroke;-inkscape-stroke:hairline"
       id="rect10-0-3"
       width="4.9905353"
       height="119.94054"
       x="147.46213"
       y="120.02973"
       transform="matrix(1,0,1.5787952e-4,1,-14.981086,-3.8146973e-6)"
       inkscape:path-effect="#path-effect11-7"
       sodipodi:type="rect"
       d="m 148.78504,120.02973 h 2.34471 a 1.3229167,1.3229167 45 0 1 1.32291,1.32292 v 117.2947 a 1.3229167,1.3229167 135 0 1 -1.32291,1.32292 l -2.34471,0 a 1.3229167,1.3229167 45 0 1 -1.32291,-1.32292 v -117.2947 a 1.3229167,1.3229167 135 0 1 1.32291,-1.32292 z" />
    <path
       style="fill:none;stroke:#ff0000;stroke-width:0.26458333;stroke-dasharray:none;stroke-opacity:1;vector-effect:non-scaling-stroke;-inkscape-stroke:hairline"
       id="rect10-0-5"
       width="4.9905353"
       height="119.94054"
       x="147.46213"
       y="120.02973"
       transform="matrix(1,0,1.5787952e-4,1,-29.981086,-3.8146973e-6)"
       inkscape:path-effect="#path-effect11-1"
       sodipodi:type="rect"
       d="m 148.78504,120.02973 h 2.34471 a 1.3229167,1.3229167 45 0 1 1.32291,1.32292 v 117.2947 a 1.3229167,1.3229167 135 0 1 -1.32291,1.32292 l -2.34471,0 a 1.3229167,1.3229167 45 0 1 -1.32291,-1.32292 v -117.2947 a 1.3229167,1.3229167 135 0 1 1.32291,-1.32292 z" />
    <path
       style="fill:none;stroke:#ff0000;stroke-width:0.26458333;stroke-dasharray:none;stroke-opacity:1;vector-effect:non-scaling-stroke;-inkscape-stroke:hairline"
       id="rect10-0-3-0"
       width="4.9905353"
       height="119.94054"
       x="147.46213"
       y="120.02973"
       transform="matrix(1,0,1.5787952e-4,1,-44.981086,-3.8146973e-6)"
       inkscape:path-effect="#path-effect11-7-5"
       sodipodi:type="rect"
       d="m 148.78504,120.02973 h 2.34471 a 1.3229167,1.3229167 45 0 1 1.32291,1.32292 v 117.2947 a 1.3229167,1.3229167 135 0 1 -1.32291,1.32292 l -2.34471,0 a 1.3229167,1.3229167 45 0 1 -1.32291,-1.32292 v -117.2947 a 1.3229167,1.3229167 135 0 1 1.32291,-1.32292 z" />
    <path
       style="fill:none;stroke:#ff0000;stroke-width:0.26458333;stroke-dasharray:none;stroke-opacity:1;vector-effect:non-scaling-stroke;-inkscape-stroke:hairline"
       id="rect10-0-5-8"
       width="4.9905353"
       height="119.94054"
       x="147.46213"
       y="120.02973"
       transform="matrix(1,0,1.5787952e-4,1,-59.981086,-3.8146973e-6)"
       inkscape:path-effect="#path-effect11-1-5"
       sodipodi:type="rect"
       d="m 148.78504,120.02973 h 2.34471 a 1.3229167,1.3229167 45 0 1 1.32291,1.32292 v 117.2947 a 1.3229167,1.3229167 135 0 1 -1.32291,1.32292 l -2.34471,0 a 1.3229167,1.3229167 45 0 1 -1.32291,-1.32292 v -117.2947 a 1.3229167,1.3229167 135 0 1 1.32291,-1.32292 z" />
    <path
       style="fill:none;stroke:#ff0000;stroke-width:0.26458333;stroke-dasharray:none;stroke-opacity:1;vector-effect:non-scaling-stroke;-inkscape-stroke:hairline"
       id="rect10-0-3-7"
       width="4.9905353"
       height="119.94054"
       x="147.46213"
       y="120.02973"
       transform="matrix(1,0,1.5787952e-4,1,-74.981086,-3.8146973e-6)"
       inkscape:path-effect="#path-effect11-7-3"
       sodipodi:type="rect"
       d="m 148.78504,120.02973 h 2.34471 a 1.3229167,1.3229167 45 0 1 1.32291,1.32292 v 117.2947 a 1.3229167,1.3229167 135 0 1 -1.32291,1.32292 l -2.34471,0 a 1.3229167,1.3229167 45 0 1 -1.32291,-1.32292 v -117.2947 a 1.3229167,1.3229167 135 0 1 1.32291,-1.32292 z" />
    <path
       style="fill:none;stroke:#ff0000;stroke-width:0.26458333;stroke-dasharray:none;stroke-opacity:1;vector-effect:non-scaling-stroke;-inkscape-stroke:hairline"
       id="rect10-0-5-6"
       width="4.9905353"
       height="119.94054"
       x="147.46213"
       y="120.02973"
       transform="matrix(1,0,1.5787952e-4,1,-89.981086,-3.8146973e-6)"
       inkscape:path-effect="#path-effect11-1-7"
       sodipodi:type="rect"
       d="m 148.78504,120.02973 h 2.34471 a 1.3229167,1.3229167 45 0 1 1.32291,1.32292 v 117.2947 a 1.3229167,1.3229167 135 0 1 -1.32291,1.32292 l -2.34471,0 a 1.3229167,1.3229167 45 0 1 -1.32291,-1.32292 v -117.2947 a 1.3229167,1.3229167 135 0 1 1.32291,-1.32292 z" />
  </g>
</svg>
