G04 EAGLE Gerber RS-274X export*
G75*
%MOMM*%
%FSLAX34Y34*%
%LPD*%
%INBottom Copper*%
%IPPOS*%
%AMOC8*
5,1,8,0,0,1.08239X$1,22.5*%
G01*
G04 Define Apertures*
%ADD10C,1.800000*%
%ADD11C,1.308000*%
G36*
X129093Y10220D02*
X128796Y10160D01*
X10922Y10160D01*
X10647Y10211D01*
X10392Y10375D01*
X10220Y10625D01*
X10160Y10922D01*
X10160Y28940D01*
X10207Y29204D01*
X10366Y29462D01*
X10614Y29637D01*
X10910Y29702D01*
X11208Y29647D01*
X11461Y29479D01*
X12623Y28317D01*
X16865Y26560D01*
X18398Y26560D01*
X18398Y49640D01*
X16865Y49640D01*
X12623Y47883D01*
X11461Y46721D01*
X11241Y46568D01*
X10946Y46498D01*
X10647Y46549D01*
X10392Y46712D01*
X10220Y46962D01*
X10160Y47260D01*
X10160Y152459D01*
X10207Y152723D01*
X10366Y152981D01*
X10614Y153156D01*
X10910Y153221D01*
X11208Y153166D01*
X11461Y152998D01*
X11557Y152902D01*
X14894Y151520D01*
X15938Y151520D01*
X15938Y169680D01*
X14894Y169680D01*
X11557Y168298D01*
X11461Y168202D01*
X11241Y168049D01*
X10946Y167979D01*
X10647Y168030D01*
X10392Y168193D01*
X10220Y168443D01*
X10160Y168741D01*
X10160Y188978D01*
X10211Y189253D01*
X10375Y189508D01*
X10625Y189680D01*
X10922Y189740D01*
X153978Y189740D01*
X154253Y189689D01*
X154508Y189525D01*
X154680Y189275D01*
X154740Y188978D01*
X154740Y10922D01*
X154689Y10647D01*
X154525Y10392D01*
X154275Y10220D01*
X153978Y10160D01*
X142204Y10160D01*
X141941Y10207D01*
X141682Y10366D01*
X141507Y10614D01*
X141442Y10910D01*
X141498Y11208D01*
X141665Y11461D01*
X142336Y12132D01*
X143564Y15096D01*
X143564Y18304D01*
X142336Y21268D01*
X140068Y23536D01*
X137104Y24764D01*
X133896Y24764D01*
X130932Y23536D01*
X128664Y21268D01*
X127436Y18304D01*
X127436Y15096D01*
X128664Y12132D01*
X129335Y11461D01*
X129488Y11241D01*
X129558Y10946D01*
X129507Y10647D01*
X129344Y10392D01*
X129093Y10220D01*
G37*
%LPC*%
G36*
X17462Y161362D02*
X25780Y161362D01*
X25780Y162406D01*
X24398Y165743D01*
X21843Y168298D01*
X18506Y169680D01*
X17462Y169680D01*
X17462Y161362D01*
G37*
G36*
X125096Y152536D02*
X128304Y152536D01*
X131268Y153764D01*
X133536Y156032D01*
X134764Y158996D01*
X134764Y162204D01*
X133536Y165168D01*
X131268Y167436D01*
X128304Y168664D01*
X125096Y168664D01*
X122132Y167436D01*
X119864Y165168D01*
X118636Y162204D01*
X118636Y158996D01*
X119864Y156032D01*
X122132Y153764D01*
X125096Y152536D01*
G37*
G36*
X17462Y151520D02*
X18506Y151520D01*
X21843Y152902D01*
X24398Y155457D01*
X25780Y158794D01*
X25780Y159838D01*
X17462Y159838D01*
X17462Y151520D01*
G37*
G36*
X84492Y92140D02*
X93308Y92140D01*
X101453Y95514D01*
X107686Y101747D01*
X111060Y109892D01*
X111060Y118708D01*
X107686Y126853D01*
X101453Y133086D01*
X93308Y136460D01*
X84492Y136460D01*
X76347Y133086D01*
X70114Y126853D01*
X66740Y118708D01*
X66740Y109892D01*
X70114Y101747D01*
X76347Y95514D01*
X84492Y92140D01*
G37*
G36*
X133896Y118636D02*
X137104Y118636D01*
X140068Y119864D01*
X142336Y122132D01*
X143564Y125096D01*
X143564Y128304D01*
X142336Y131268D01*
X140068Y133536D01*
X137104Y134764D01*
X133896Y134764D01*
X130932Y133536D01*
X128664Y131268D01*
X127436Y128304D01*
X127436Y125096D01*
X128664Y122132D01*
X130932Y119864D01*
X133896Y118636D01*
G37*
G36*
X19922Y38862D02*
X30700Y38862D01*
X30700Y40395D01*
X28943Y44637D01*
X25697Y47883D01*
X21455Y49640D01*
X19922Y49640D01*
X19922Y38862D01*
G37*
G36*
X67867Y27576D02*
X72053Y27576D01*
X75921Y29178D01*
X78882Y32139D01*
X80484Y36007D01*
X80484Y40193D01*
X78882Y44061D01*
X75921Y47022D01*
X72053Y48624D01*
X67867Y48624D01*
X63999Y47022D01*
X61038Y44061D01*
X59436Y40193D01*
X59436Y36007D01*
X61038Y32139D01*
X63999Y29178D01*
X67867Y27576D01*
G37*
G36*
X42467Y27576D02*
X46653Y27576D01*
X50521Y29178D01*
X53482Y32139D01*
X55084Y36007D01*
X55084Y40193D01*
X53482Y44061D01*
X50521Y47022D01*
X46653Y48624D01*
X42467Y48624D01*
X38599Y47022D01*
X35638Y44061D01*
X34036Y40193D01*
X34036Y36007D01*
X35638Y32139D01*
X38599Y29178D01*
X42467Y27576D01*
G37*
G36*
X19922Y26560D02*
X21455Y26560D01*
X25697Y28317D01*
X28943Y31563D01*
X30700Y35805D01*
X30700Y37338D01*
X19922Y37338D01*
X19922Y26560D01*
G37*
%LPD*%
D10*
X19160Y38100D03*
X69960Y38100D03*
X44560Y38100D03*
D11*
X135500Y126700D03*
X135500Y16700D03*
X126700Y160600D03*
X16700Y160600D03*
M02*
